# Wavefront OBJ file automatically generated by Tiled2Unity

# Vertices (Count = 141)
v -256 -160 0
v -272 -160 0
v -272 -144 0
v -256 -144 0
v -288 -160 0
v -288 -144 0
v -304 -160 0
v -304 -144 0
v -320 -160 0
v -320 -144 0
v -336 -160 0
v -336 -144 0
v -352 -160 0
v -352 -144 0
v -368 -160 0
v -368 -144 0
v -384 -160 0
v -400 -160 0
v -400 -144 0
v -384 -144 0
v -416 -160 0
v -416 -144 0
v -432 -160 0
v -432 -144 0
v -448 -160 0
v -448 -144 0
v -256 -176 0
v -272 -176 0
v -288 -176 0
v -304 -176 0
v -320 -176 0
v -336 -176 0
v -352 -176 0
v -368 -176 0
v -384 -176 0
v -400 -176 0
v -416 -176 0
v -432 -176 0
v -448 -176 0
v -256 -192 0
v -272 -192 0
v -288 -192 0
v -304 -192 0
v -320 -192 0
v -336 -192 0
v -352 -192 0
v -368 -192 0
v -384 -192 0
v -400 -192 0
v -416 -192 0
v -432 -192 0
v -448 -192 0
v -256 -208 0
v -272 -208 0
v -288 -208 0
v -304 -208 0
v -320 -208 0
v -336 -208 0
v -352 -208 0
v -368 -208 0
v -384 -208 0
v -400 -208 0
v -416 -208 0
v -432 -208 0
v -448 -208 0
v -256 -224 0
v -272 -224 0
v -288 -224 0
v -304 -224 0
v -320 -224 0
v -336 -224 0
v -352 -224 0
v -368 -224 0
v -384 -224 0
v -400 -224 0
v -416 -224 0
v -432 -224 0
v -448 -224 0
v -256 -240 0
v -272 -240 0
v -288 -240 0
v -304 -240 0
v -320 -240 0
v -336 -240 0
v -352 -240 0
v -368 -240 0
v -384 -240 0
v -400 -240 0
v -416 -240 0
v -432 -240 0
v -448 -240 0
v -272 -256 0
v -288 -256 0
v -304 -256 0
v -320 -256 0
v -336 -256 0
v -352 -256 0
v -368 -256 0
v -384 -256 0
v -400 -256 0
v -416 -256 0
v -432 -256 0
v -304 -272 0
v -320 -272 0
v -336 -272 0
v -352 -272 0
v -304 -288 0
v -320 -288 0
v -336 -288 0
v -352 -288 0
v -368 -288 0
v -368 -272 0
v -384 -288 0
v -384 -272 0
v -304 -304 0
v -320 -304 0
v -336 -304 0
v -352 -304 0
v -368 -304 0
v -384 -304 0
v -400 -304 0
v -400 -288 0
v -304 -320 0
v -320 -320 0
v -336 -320 0
v -352 -320 0
v -368 -320 0
v -384 -320 0
v -400 -320 0
v -304 -336 0
v -320 -336 0
v -336 -336 0
v -352 -336 0
v -368 -336 0
v -384 -336 0
v -400 -336 0
v -320 -352 0
v -336 -352 0
v -352 -352 0
v -368 -352 0
v -384 -352 0

# Texture cooridinates (Count = 16)
vt 0.09103116 0.06262207
vt 0.4544234 0.06262207
vt 0.4544234 0.3123779
vt 0.09103116 0.3123779
vt 0.09103116 0.6876221
vt 0.4544234 0.6876221
vt 0.4544234 0.9373779
vt 0.09103116 0.9373779
vt 0.09103116 0.3751221
vt 0.4544234 0.3751221
vt 0.4544234 0.6248779
vt 0.09103116 0.6248779
vt 0.5455766 0.6876221
vt 0.9089689 0.6876221
vt 0.9089689 0.9373779
vt 0.5455766 0.9373779

# Normal
vn 0 0 -1

# Groups (Count = 1)

g mesh_0001
f 1/1/1 2/2/1 3/3/1 4/4/1
f 2/5/1 5/6/1 6/7/1 3/8/1
f 5/5/1 7/6/1 8/7/1 6/8/1
f 7/5/1 9/6/1 10/7/1 8/8/1
f 9/5/1 11/6/1 12/7/1 10/8/1
f 11/5/1 13/6/1 14/7/1 12/8/1
f 13/9/1 15/10/1 16/11/1 14/12/1
f 17/1/1 18/2/1 19/3/1 20/4/1
f 18/5/1 21/6/1 22/7/1 19/8/1
f 21/5/1 23/6/1 24/7/1 22/8/1
f 23/9/1 25/10/1 26/11/1 24/12/1
f 27/1/1 28/2/1 2/3/1 1/4/1
f 28/13/1 29/14/1 5/15/1 2/16/1
f 29/13/1 30/14/1 7/15/1 5/16/1
f 30/13/1 31/14/1 9/15/1 7/16/1
f 31/13/1 32/14/1 11/15/1 9/16/1
f 32/13/1 33/14/1 13/15/1 11/16/1
f 33/9/1 34/10/1 15/11/1 13/12/1
f 35/1/1 36/2/1 18/3/1 17/4/1
f 36/13/1 37/14/1 21/15/1 18/16/1
f 37/13/1 38/14/1 23/15/1 21/16/1
f 38/9/1 39/10/1 25/11/1 23/12/1
f 40/1/1 41/2/1 28/3/1 27/4/1
f 41/13/1 42/14/1 29/15/1 28/16/1
f 42/13/1 43/14/1 30/15/1 29/16/1
f 43/13/1 44/14/1 31/15/1 30/16/1
f 44/13/1 45/14/1 32/15/1 31/16/1
f 45/13/1 46/14/1 33/15/1 32/16/1
f 46/9/1 47/10/1 34/11/1 33/12/1
f 48/1/1 49/2/1 36/3/1 35/4/1
f 49/13/1 50/14/1 37/15/1 36/16/1
f 50/13/1 51/14/1 38/15/1 37/16/1
f 51/9/1 52/10/1 39/11/1 38/12/1
f 53/1/1 54/2/1 41/3/1 40/4/1
f 54/13/1 55/14/1 42/15/1 41/16/1
f 55/13/1 56/14/1 43/15/1 42/16/1
f 56/13/1 57/14/1 44/15/1 43/16/1
f 57/13/1 58/14/1 45/15/1 44/16/1
f 58/13/1 59/14/1 46/15/1 45/16/1
f 59/9/1 60/10/1 47/11/1 46/12/1
f 61/1/1 62/2/1 49/3/1 48/4/1
f 62/13/1 63/14/1 50/15/1 49/16/1
f 63/13/1 64/14/1 51/15/1 50/16/1
f 64/9/1 65/10/1 52/11/1 51/12/1
f 66/1/1 67/2/1 54/3/1 53/4/1
f 67/13/1 68/14/1 55/15/1 54/16/1
f 68/13/1 69/14/1 56/15/1 55/16/1
f 69/13/1 70/14/1 57/15/1 56/16/1
f 70/13/1 71/14/1 58/15/1 57/16/1
f 71/13/1 72/14/1 59/15/1 58/16/1
f 72/5/1 73/6/1 60/7/1 59/8/1
f 73/5/1 74/6/1 61/7/1 60/8/1
f 74/5/1 75/6/1 62/7/1 61/8/1
f 75/13/1 76/14/1 63/15/1 62/16/1
f 76/13/1 77/14/1 64/15/1 63/16/1
f 77/9/1 78/10/1 65/11/1 64/12/1
f 79/1/1 80/2/1 67/3/1 66/4/1
f 80/13/1 81/14/1 68/15/1 67/16/1
f 81/13/1 82/14/1 69/15/1 68/16/1
f 82/13/1 83/14/1 70/15/1 69/16/1
f 83/13/1 84/14/1 71/15/1 70/16/1
f 84/13/1 85/14/1 72/15/1 71/16/1
f 85/13/1 86/14/1 73/15/1 72/16/1
f 86/13/1 87/14/1 74/15/1 73/16/1
f 87/13/1 88/14/1 75/15/1 74/16/1
f 88/13/1 89/14/1 76/15/1 75/16/1
f 89/13/1 90/14/1 77/15/1 76/16/1
f 90/9/1 91/10/1 78/11/1 77/12/1
f 92/5/1 93/6/1 81/7/1 80/8/1
f 93/5/1 94/6/1 82/7/1 81/8/1
f 94/5/1 95/6/1 83/7/1 82/8/1
f 95/13/1 96/14/1 84/15/1 83/16/1
f 96/5/1 97/6/1 85/7/1 84/8/1
f 97/5/1 98/6/1 86/7/1 85/8/1
f 98/5/1 99/6/1 87/7/1 86/8/1
f 99/5/1 100/6/1 88/7/1 87/8/1
f 100/5/1 101/6/1 89/7/1 88/8/1
f 101/5/1 102/6/1 90/7/1 89/8/1
f 103/1/1 104/2/1 95/3/1 94/4/1
f 104/13/1 105/14/1 96/15/1 95/16/1
f 105/9/1 106/10/1 97/11/1 96/12/1
f 107/1/1 108/2/1 104/3/1 103/4/1
f 108/13/1 109/14/1 105/15/1 104/16/1
f 109/5/1 110/6/1 106/7/1 105/8/1
f 110/5/1 111/6/1 112/7/1 106/8/1
f 111/5/1 113/6/1 114/7/1 112/8/1
f 115/1/1 116/2/1 108/3/1 107/4/1
f 116/13/1 117/14/1 109/15/1 108/16/1
f 117/13/1 118/14/1 110/15/1 109/16/1
f 118/13/1 119/14/1 111/15/1 110/16/1
f 119/13/1 120/14/1 113/15/1 111/16/1
f 120/9/1 121/10/1 122/11/1 113/12/1
f 123/1/1 124/2/1 116/3/1 115/4/1
f 124/13/1 125/14/1 117/15/1 116/16/1
f 125/13/1 126/14/1 118/15/1 117/16/1
f 126/13/1 127/14/1 119/15/1 118/16/1
f 127/13/1 128/14/1 120/15/1 119/16/1
f 128/9/1 129/10/1 121/11/1 120/12/1
f 130/1/1 131/2/1 124/3/1 123/4/1
f 131/13/1 132/14/1 125/15/1 124/16/1
f 132/13/1 133/14/1 126/15/1 125/16/1
f 133/13/1 134/14/1 127/15/1 126/16/1
f 134/13/1 135/14/1 128/15/1 127/16/1
f 135/9/1 136/10/1 129/11/1 128/12/1
f 137/5/1 138/6/1 132/7/1 131/8/1
f 138/5/1 139/6/1 133/7/1 132/8/1
f 139/5/1 140/6/1 134/7/1 133/8/1
f 140/5/1 141/6/1 135/7/1 134/8/1

